<?xml version="1.0" encoding="utf-8"?>
<!-- Generator: Adobe Illustrator 24.0.1, SVG Export Plug-In . SVG Version: 6.00 Build 0)  -->
<svg version="1.1" id="Capa_1" xmlns="http://www.w3.org/2000/svg" xmlns:xlink="http://www.w3.org/1999/xlink" x="0px" y="0px"
	 viewBox="0 0 186 61" style="enable-background:new 0 0 186 61;" xml:space="preserve">
<style type="text/css">
	.st0{fill:#F5B335;}
	.st1{fill:#3BD4AE;}
	.st2{fill:#243746;}
</style>
<g>
	<g>
		<g>
			<g>
				<path class="st0" d="M22.7,7.4c-2.4,0.3-5,1.3-7.1,2.7c-2.3,1.5-4.1,3.4-5.8,6c-1.4,2.2-2.4,5.6-2.4,8.1c0,3.9,0.9,7,3.2,10.6
					c2.4,4,6.2,7.9,10,11.5c0.2,0.2,0.5,0.5,0.8,0.7c0.3,0.3,0.7,0.6,1,1c0.1,0.1,0.1,0.1,0.2,0.1s0.2,0,0.2-0.1
					c0.1-0.1,0.1-0.3,0-0.4c-4.8-6.5-7-13.7-7-22.6c0-3.8,1-7.5,2.8-11c1.6-3,3.5-5,4.4-6.1c0.1-0.1,0.1-0.3,0-0.4
					C23,7.5,22.9,7.4,22.7,7.4z"/>
				<path class="st0" d="M41.8,16.1c-1.7-2.7-3.5-4.5-5.8-6c-2.1-1.4-4.8-2.4-7.1-2.7c-0.1,0-0.3,0-0.3,0.2c-0.1,0.1,0,0.3,0,0.4
					c0.9,1,2.8,3,4.4,6c1.9,3.5,2.8,7.2,2.8,11c0,9-2.3,16.1-7.1,22.6c-0.1,0.1-0.1,0.3,0,0.4c0.1,0.1,0.1,0.1,0.2,0.1
					s0.2,0,0.2-0.1c0.3-0.3,0.7-0.7,1-1c0.3-0.2,0.5-0.5,0.8-0.7c3.7-3.6,7.5-7.5,10-11.5c2.3-3.7,3.2-6.8,3.2-10.6
					C44.2,21.7,43.2,18.4,41.8,16.1z"/>
			</g>
			<g>
				<path class="st0" d="M30.8,55.6l-4.5-4.5c-0.1-0.1-0.3-0.2-0.5-0.2s-0.3,0.1-0.5,0.2l-4.5,4.6c-0.3,0.3-0.3,0.7,0,0.9
					c0.1,0.1,0.2,0.2,0.4,0.2h0.4v3.1c0,0.4,0.3,0.6,0.6,0.6h2.7v-2.9c0-0.5,0.4-0.9,0.8-0.9l0,0c0.5,0,0.8,0.4,0.8,0.9v2.9h2.7
					c0.4,0,0.6-0.3,0.6-0.6v-3.1h0.4c0.2,0,0.3-0.1,0.4-0.2C31.1,56.3,31.1,55.9,30.8,55.6z"/>
			</g>
		</g>
		<path class="st1" d="M47.5,12.6c-2.2-3.6-5.3-6.7-8.9-8.7c-3.8-2.2-8.2-3.4-12.8-3.4l0,0l0,0l0,0c-4.7,0-9,1.1-12.8,3.4
			c-3.6,2-6.6,5.1-8.8,8.7s-3.3,7.6-3.3,11.7c0,2.6,0.4,5.1,1.3,7.6c0.7,2.1,1.8,4.2,3.6,7c3.5,5.5,10.4,12.3,13.2,15
			c0.1,0.1,0.3,0.2,0.4,0.2c0.2,0,0.3-0.1,0.5-0.2l2.7-2.7c0.1-0.1,0.2-0.3,0.2-0.5s-0.1-0.3-0.2-0.5c-2.4-2.3-10-9.8-12.8-14
			c-1.4-2.2-2.4-4.1-3-6.1c-0.6-1.9-0.9-3.8-0.9-5.8c0-3.1,0.9-6.3,2.6-9.1c3.7-6.2,10-9.7,17.3-9.7S39.5,9,43.2,15.2
			c1.7,2.8,2.6,6,2.6,9.1c0,2-0.3,3.9-0.9,5.8c-0.6,1.9-1.6,3.9-3,6.1c-2.8,4.3-10.3,11.8-12.8,14C29,50.4,29,50.5,29,50.7
			s0.1,0.3,0.2,0.5l2.7,2.7c0.1,0.1,0.3,0.2,0.5,0.2s0.3-0.1,0.4-0.2c1.3-1.2,3.8-3.6,6.4-6.5c3-3.3,5.3-6.1,6.8-8.5
			c1.8-2.8,2.9-4.9,3.6-7c0.9-2.5,1.3-5,1.3-7.6C50.8,20.2,49.7,16.2,47.5,12.6z"/>
	</g>
	<g>
		<g>
			<path class="st2" d="M73.7,18.6c0,2.7-2,5.6-5.8,5.6h-7V5.6H66c3.3,0,5.4,2.4,5.4,4.9c0,2-1.3,3.2-1.8,3.2
				C71.3,13.8,73.7,15.6,73.7,18.6z M64.6,9.3v3.6h1.5c0.9,0,1.8-0.8,1.8-1.8s-0.8-1.8-1.7-1.8C66.2,9.3,64.6,9.3,64.6,9.3z
				 M70,18.3c0-1.1-0.7-2.1-2.5-2.1h-2.9v4.4h3C68.7,20.6,70,19.8,70,18.3z"/>
			<path class="st2" d="M74.9,15c0-5.3,4.3-9.7,9.7-9.7s9.7,4.4,9.7,9.7s-4.4,9.6-9.7,9.6S74.9,20.3,74.9,15z M90.5,14.9
				c0-3.3-2.7-5.9-5.9-5.9c-3.2,0-5.9,2.7-5.9,5.9s2.6,5.9,5.9,5.9S90.5,18.2,90.5,14.9z"/>
			<path class="st2" d="M172.6,18.6c0,2.7-2,5.6-5.8,5.6h-7V5.6h5.1c3.3,0,5.4,2.4,5.4,4.9c0,2-1.3,3.2-1.8,3.2
				C170.3,13.8,172.6,15.6,172.6,18.6z M163.5,9.3v3.6h1.5c0.9,0,1.8-0.8,1.8-1.8s-0.8-1.8-1.7-1.8C165.1,9.3,163.5,9.3,163.5,9.3z
				 M168.9,18.3c0-1.1-0.7-2.1-2.5-2.1h-2.9v4.4h3C167.6,20.6,168.9,19.8,168.9,18.3z"/>
			<path class="st2" d="M178.4,9.3V13h6.4v3.7h-6.4v3.8h7.5v3.7h-11.2V5.6h11.2v3.7H178.4z"/>
			<path class="st2" d="M83.9,42.9c0-7.1,5.8-12.9,12.9-12.9s12.9,5.8,12.9,12.9c0,7-5.8,12.8-12.9,12.8
				C89.7,55.7,83.9,49.9,83.9,42.9z M104.6,42.9c0-4.3-3.5-7.9-7.9-7.9c-4.3,0-7.8,3.5-7.8,7.9c0,4.3,3.5,7.8,7.8,7.8
				C101.1,50.7,104.6,47.2,104.6,42.9z"/>
			<path class="st2" d="M185.9,42.9c0,7.7-4.9,12.3-12.9,12.3h-7.2V30.5h7.2C181,30.5,185.9,35.2,185.9,42.9z M180.9,42.9
				c0-4.6-3-7.5-7.9-7.5h-2.2v14.9h2.3C178,50.3,180.9,47.5,180.9,42.9z"/>
			<path class="st2" d="M105.7,16.8c2-0.7,3.4-2.8,3.4-5.2c0-3.3-2.8-6-6.3-6h-0.7v3.7h0.8c1.3,0,2.4,1,2.4,2.3s-1.1,2.4-2.4,2.3
				h-2.4V9.2V5.6h-3.7v18.6h3.7v-8.8l5.9,8.8h4.6L105.7,16.8z"/>
			<polygon class="st2" points="151.6,29.9 151.4,29.9 139.6,55.2 145,55.2 146.5,51.8 154.7,51.8 152.7,47.5 148.5,47.5 
				151.5,40.9 158,55.2 163.4,55.2 			"/>
			<g>
				<polygon class="st2" points="113.2,29.9 112.9,29.9 112.9,55.2 117.9,55.2 117.9,44.5 125,54.8 125,54.8 128,50.4 				"/>
			</g>
			<polygon class="st2" points="136.8,29.9 126,44.9 129,49 132.1,44.5 132.1,55.2 137.1,55.2 137.1,29.9 			"/>
			<g>
				<polygon class="st2" points="75.7,30.4 75.7,42 80.7,46.8 80.7,30.4 				"/>
				<polygon class="st2" points="60.8,30 60.8,55.3 65.8,55.3 65.8,41.4 80.5,55.7 80.7,55.7 80.7,49.1 61.1,30 				"/>
			</g>
			<g>
				<polygon class="st2" points="112.7,5.3 112.7,24.3 116.5,24.3 116.5,13.8 127.5,24.6 127.7,24.6 127.7,19.6 112.9,5.3 				"/>
				<polygon class="st2" points="123.9,5.6 123.9,13.7 127.7,17.4 127.7,5.6 				"/>
			</g>
		</g>
		<g>
			<path class="st2" d="M150.4,20.6v3.7h-13.8v-0.7c6.7-6.1,9.8-9.3,9.8-11.3c0-1.7-1.4-3-2.6-3c-1.7,0-3.1,1.4-3.1,3.2l-3.3-0.9
				c0-3.3,2.9-6,6.3-6c3.5,0,6.4,3.1,6.4,6.5c0,3-3.1,6.6-5.7,8.5H150.4z"/>
		</g>
	</g>
</g>
</svg>
