<?xml version="1.0" encoding="utf-8"?>
<!-- Generator: Adobe Illustrator 24.0.1, SVG Export Plug-In . SVG Version: 6.00 Build 0)  -->
<svg version="1.1" id="Capa_1" xmlns="http://www.w3.org/2000/svg" xmlns:xlink="http://www.w3.org/1999/xlink" x="0px" y="0px"
	 viewBox="0 0 120 171" style="enable-background:new 0 0 120 171;" xml:space="preserve">
<style type="text/css">
	.st0{fill:#F5B335;}
	.st1{fill:#243746;}
	.st2{fill:#F1F2F2;}
	.st3{fill:#3BD4AE;}
</style>
<g>
	<g>
		<g>
			<path class="st0" d="M109.1,37c0,12.2-9.9,22.1-22.1,22.1S64.8,49.3,64.8,37S74.7,14.9,87,14.9S109.1,24.8,109.1,37z"/>
			<path class="st1" d="M87,61.2c-13.3,0-24.1-10.8-24.1-24.1c0-13.3,10.8-24.1,24.1-24.1c13.3,0,24.1,10.8,24.1,24.1
				C111.1,50.3,100.3,61.2,87,61.2z M87,16.9c-11.1,0-20.1,9-20.1,20.1c0,11.1,9,20.1,20.1,20.1c11.1,0,20.1-9,20.1-20.1
				C107.1,25.9,98.1,16.9,87,16.9z"/>
		</g>
		<g>
			<path class="st2" d="M102,37c0,8.3-6.7,15.1-15.1,15.1c-8.3,0-15.1-6.7-15.1-15.1C71.9,28.7,78.6,22,87,22
				C95.3,22,102,28.7,102,37z"/>
		</g>
		<g>
			<path class="st0" d="M90.6,31.6h0.5c0.9,0,1.7-0.8,1.7-1.7s-0.8-1.7-1.7-1.7h-0.5c-3.7,0-6.8,2.2-8.3,5.3H81
				c-0.9,0-1.7,0.8-1.7,1.7s0.8,1.7,1.7,1.7h0.6c0,0.1,0,0.2,0,0.4c0,0.2,0,0.4,0,0.6H81c-0.9,0-1.7,0.8-1.7,1.7s0.8,1.7,1.7,1.7
				h1.5c1.5,3,4.6,5,8.1,5h0.5c0.9,0,1.7-0.8,1.7-1.7s-0.8-1.7-1.7-1.7h-0.5c-1.5,0-2.9-0.6-3.9-1.6h3.7c0.9,0,1.7-0.8,1.7-1.7
				s-0.8-1.7-1.7-1.7H85c0-0.2,0-0.4,0-0.6c0-0.1,0-0.2,0-0.4h5.4c0.9,0,1.7-0.8,1.7-1.7s-0.8-1.7-1.7-1.7h-4
				C87.4,32.3,88.9,31.6,90.6,31.6z"/>
		</g>
	</g>
	<g>
		<g>
			<path class="st0" d="M77.9,31.3c0,16-12.9,28.9-28.9,28.9S20.2,47.2,20.2,31.3S33.1,2.4,49.1,2.4S77.9,15.3,77.9,31.3z"/>
			<path class="st1" d="M49.1,62.2c-17,0-30.9-13.9-30.9-30.9c0-17,13.9-30.9,30.9-30.9c17,0,30.9,13.9,30.9,30.9
				C79.9,48.3,66.1,62.2,49.1,62.2z M49.1,4.4c-14.8,0-26.9,12.1-26.9,26.9c0,14.8,12.1,26.9,26.9,26.9c14.8,0,26.9-12.1,26.9-26.9
				C75.9,16.5,63.9,4.4,49.1,4.4z"/>
		</g>
		<g>
			<path class="st2" d="M68.7,31.3c0,10.9-8.8,19.7-19.7,19.7c-10.9,0-19.7-8.8-19.7-19.7c0-10.9,8.8-19.7,19.7-19.7
				C59.9,11.6,68.7,20.4,68.7,31.3z"/>
		</g>
		<g>
			<path class="st0" d="M53.8,24.2h0.7c1.2,0,2.2-1,2.2-2.2s-1-2.2-2.2-2.2h-0.7c-4.8,0-8.9,2.8-10.8,6.9h-1.8c-1.2,0-2.2,1-2.2,2.2
				c0,1.2,1,2.2,2.2,2.2H42c0,0.2,0,0.3,0,0.5c0,0.3,0,0.6,0,0.8h-0.7c-1.2,0-2.2,1-2.2,2.2s1,2.2,2.2,2.2h2c2,3.9,6,6.6,10.6,6.6
				h0.7c1.2,0,2.2-1,2.2-2.2c0-1.2-1-2.2-2.2-2.2h-0.7c-2,0-3.8-0.8-5.1-2.1h4.9c1.2,0,2.2-1,2.2-2.2s-1-2.2-2.2-2.2h-7.1
				c0-0.3-0.1-0.6-0.1-0.8c0-0.2,0-0.3,0-0.5h7.1c1.2,0,2.2-1,2.2-2.2c0-1.2-1-2.2-2.2-2.2h-5.2C49.7,25.1,51.6,24.2,53.8,24.2z"/>
		</g>
	</g>
	<g>
		<g>
			<path class="st3" d="M30.7,160.5c-3.3,0-5.2-2.8-5.4-5.5l-6.5-85c0-0.6,0.1-1.1,0.5-1.5c0.4-0.4,0.9-0.6,1.5-0.6h87.4
				c0.6,0,1.1,0.2,1.5,0.6c0.4,0.4,0.6,1,0.5,1.5l-6.5,85c-0.2,2.7-2.1,5.5-5.4,5.5H30.7z"/>
		</g>
		<g>
			<path class="st1" d="M108.3,69.9l-6.5,85c-0.1,1.8-1.4,3.7-3.4,3.7H30.7c-2,0-3.3-1.8-3.4-3.7l-6.5-85H108.3 M108.3,65.9H20.8
				c-1.1,0-2.2,0.5-2.9,1.3c-0.8,0.8-1.1,1.9-1.1,3l6.5,85c0.1,1.8,0.8,3.5,1.9,4.8c1.4,1.7,3.3,2.6,5.5,2.6h67.7
				c2.1,0,4.1-0.9,5.5-2.6c1.1-1.3,1.8-3,1.9-4.8l6.5-85c0.1-1.1-0.3-2.2-1.1-3C110.4,66.3,109.4,65.9,108.3,65.9L108.3,65.9z"/>
		</g>
	</g>
	<g>
		<g>
			<g>
				<path class="st2" d="M47.6,141.6c-3,0-5.4-2.4-5.4-5.4V95.6c0-3,2.4-5.4,5.4-5.4s5.4,2.4,5.4,5.4v40.6
					C53,139.2,50.6,141.6,47.6,141.6z"/>
			</g>
		</g>
		<g>
			<g>
				<path class="st1" d="M47.6,92.2c1.9,0,3.4,1.5,3.4,3.4v40.6c0,1.9-1.5,3.4-3.4,3.4c-1.9,0-3.4-1.5-3.4-3.4V95.6
					C44.2,93.7,45.8,92.2,47.6,92.2 M47.6,88.2c-4.1,0-7.4,3.3-7.4,7.4v40.6c0,4.1,3.3,7.4,7.4,7.4c4.1,0,7.4-3.3,7.4-7.4V95.6
					C55,91.5,51.7,88.2,47.6,88.2L47.6,88.2z"/>
			</g>
		</g>
	</g>
	<g>
		<g>
			<g>
				<path class="st2" d="M81.5,141.6c-3,0-5.4-2.4-5.4-5.4V95.6c0-3,2.4-5.4,5.4-5.4s5.4,2.4,5.4,5.4v40.6
					C86.9,139.2,84.4,141.6,81.5,141.6z"/>
			</g>
		</g>
		<g>
			<g>
				<path class="st1" d="M81.5,92.2c1.9,0,3.4,1.5,3.4,3.4v40.6c0,1.9-1.5,3.4-3.4,3.4s-3.4-1.5-3.4-3.4V95.6
					C78.1,93.7,79.6,92.2,81.5,92.2 M81.5,88.2c-4.1,0-7.4,3.3-7.4,7.4v40.6c0,4.1,3.3,7.4,7.4,7.4c4.1,0,7.4-3.3,7.4-7.4V95.6
					C88.9,91.5,85.5,88.2,81.5,88.2L81.5,88.2z"/>
			</g>
		</g>
	</g>
	<g>
		<g>
			<path class="st3" d="M17.2,68.5c-3,0-5.4-2.4-5.4-5.4v-6.8c0-3,2.4-5.4,5.4-5.4h94.8c3,0,5.4,2.4,5.4,5.4v6.8
				c0,3-2.4,5.4-5.4,5.4H17.2z"/>
		</g>
		<g>
			<path class="st1" d="M111.9,52.9c1.9,0,3.4,1.5,3.4,3.4v6.8h0c0,1.9-1.5,3.4-3.4,3.4H17.2c-1.9,0-3.4-1.5-3.4-3.4v-6.8
				c0-1.9,1.5-3.4,3.4-3.4H111.9 M111.9,48.9H17.2c-4.1,0-7.4,3.3-7.4,7.4v6.8c0,4.1,3.3,7.4,7.4,7.4h94.8c4.1,0,7.4-3.3,7.4-7.4
				l0-6.8C119.3,52.3,116,48.9,111.9,48.9L111.9,48.9z"/>
		</g>
	</g>
	<g>
		<g>
			<g>
				<path class="st0" d="M19,115.5l-0.4-1.5c0,0-0.3-1.2-0.8-2.6c-1-2.6-2.1-4.4-3.1-4.9c-1.6-0.7-2-2.1-1.8-3.1
					c0.5-2.5,4.7-3.9,7.5-3.9c3,0,5.2,1.4,6.2,3.7c0.4-0.3,1.1-0.7,1.6-1.1c2.1-1.5,4.9-3.5,8.4-3.5c1.5,0,3,0.4,4.4,1
					c2.2,1,4,2,4,3.8c0.1,1.7-1.3,2.5-2.6,3.2c-1.5,0.9-3.4,2-4.1,4.4c-0.2,0.7-0.3,1.4-0.3,2.3v2H19z"/>
			</g>
			<g>
				<path class="st1" d="M36.6,100.7c1.1,0,2.3,0.2,3.6,0.9c7.5,3.6-1.6,2.2-3.7,9.1c-0.2,0.8-0.4,1.7-0.4,2.8H20.6
					c0,0-0.3-1.2-0.9-2.8c-0.8-2.2-2.2-5.1-4.2-6c-2.2-1,1.5-3.2,4.9-3.2c1.9,0,3.6,0.7,4.4,2.5c0.4,1,0.9,1.4,1.5,1.4
					C28.3,105.5,31.8,100.7,36.6,100.7 M36.6,96.7L36.6,96.7c-4.1,0-7.3,2.2-9.5,3.7c-1.6-1.8-4-2.9-6.8-2.9c-3.2,0-8.6,1.5-9.4,5.4
					c-0.4,1.8,0.3,4.2,2.9,5.4c0.2,0.1,1.1,1.1,2.1,3.7c0.5,1.3,0.7,2.3,0.7,2.4l0.7,3l3.1,0h15.6h4v-4c0-0.6,0.1-1.2,0.2-1.7
					c0.4-1.5,1.5-2.3,3.2-3.2c1.4-0.8,3.7-2.2,3.6-5.1c-0.1-3.1-3.2-4.6-5.2-5.6C40.2,97.1,38.4,96.7,36.6,96.7L36.6,96.7z"/>
			</g>
		</g>
		<g>
			<path class="st0" d="M54.7,142.3c0,14.4-11.7,26.1-26.1,26.1S2.5,156.7,2.5,142.3c0-9.7,5.2-18.1,13-22.6c3.8-2.2,8.3-3.5,13-3.5
				c4.8,0,9.2,1.3,13,3.5C49.5,124.2,54.7,132.6,54.7,142.3z"/>
			<path class="st1" d="M28.6,170.4c-15.5,0-28.1-12.6-28.1-28.1c0-10,5.4-19.3,14-24.3c4.2-2.5,9.1-3.8,14-3.8
				c4.9,0,9.8,1.3,14,3.8c8.7,5,14,14.3,14,24.3C56.7,157.8,44.1,170.4,28.6,170.4z M28.6,118.2c-4.2,0-8.4,1.1-12,3.2
				c-7.4,4.3-12.1,12.3-12.1,20.9c0,13.3,10.8,24.1,24.1,24.1c13.3,0,24.1-10.8,24.1-24.1c0-8.6-4.6-16.6-12.1-20.9
				C37,119.3,32.8,118.2,28.6,118.2z"/>
		</g>
		<g>
			<path class="st2" d="M38,118.9H19.2c-0.8,0-1.5-0.7-1.5-1.5v-2.3c0-0.8,0.7-1.5,1.5-1.5H38c0.8,0,1.5,0.7,1.5,1.5v2.3
				C39.5,118.2,38.8,118.9,38,118.9z"/>
			<path class="st1" d="M38,120.9H19.2c-1.9,0-3.5-1.6-3.5-3.5v-2.3c0-1.9,1.6-3.5,3.5-3.5H38c1.9,0,3.5,1.6,3.5,3.5v2.3
				C41.5,119.3,39.9,120.9,38,120.9z M19.7,116.9h17.9v-1.4H19.7V116.9z"/>
		</g>
		<g>
			<path class="st2" d="M42.4,142.8c0,7.6-6.2,13.8-13.8,13.8c-7.6,0-13.8-6.2-13.8-13.8c0-7.6,6.2-13.8,13.8-13.8
				C36.2,129,42.4,135.2,42.4,142.8z"/>
		</g>
		<g>
			<path class="st0" d="M31.5,138.8h0.4c0.8,0,1.5-0.7,1.5-1.5s-0.7-1.5-1.5-1.5h-0.4c-3.1,0-5.8,1.9-7,4.5h-1.2
				c-0.8,0-1.5,0.7-1.5,1.5c0,0.8,0.7,1.5,1.5,1.5h0.5c0,0.1,0,0.2,0,0.3c0,0.2,0,0.4,0,0.6h-0.5c-0.8,0-1.5,0.7-1.5,1.5
				s0.7,1.5,1.5,1.5h1.3c1.3,2.5,3.9,4.3,6.9,4.3h0.4c0.8,0,1.5-0.7,1.5-1.5c0-0.8-0.7-1.5-1.5-1.5h-0.4c-1.3,0-2.5-0.5-3.4-1.4h3.2
				c0.8,0,1.5-0.7,1.5-1.5s-0.7-1.5-1.5-1.5h-4.6c0-0.2,0-0.4,0-0.6c0-0.1,0-0.2,0-0.3h4.6c0.8,0,1.5-0.7,1.5-1.5
				c0-0.8-0.7-1.5-1.5-1.5h-3.4C28.8,139.4,30.1,138.8,31.5,138.8z"/>
		</g>
	</g>
</g>
</svg>
